<svg xmlns="http://www.w3.org/2000/svg" viewBox="0 0 725 432" width="81" height="48">
	<defs>
		<clipPath clipPathUnits="userSpaceOnUse" id="cp1">
			<path d="M0 -1L725 -1L725 432L0 432Z" />
		</clipPath>
	</defs>
	<style>
		<!-- tspan { white-space:pre }
		.shp0 { fill: #ffffff } -->
	</style>
	<g id="Page 1" clip-path="url(#cp1)">
		<path id="Path 1" class="shp0" d="M8.69 195.31C3.04 200.96 0 208.57 0 215.96C0 223.35 2.82 230.95 8.69 236.6L195.15 423.06C206.67 434.58 225.14 434.58 236.66 423.06C248.18 411.55 248.18 393.07 236.66 381.56L100.18 245.3L695.42 245.3C711.71 245.3 724.75 232.26 724.75 215.96C724.75 199.66 711.71 186.62 695.42 186.62L100.18 186.62L236.66 50.15C248.18 38.63 248.18 20.16 236.66 8.64C225.14 -2.88 206.67 -2.88 195.15 8.64L8.69 195.31Z" />
	</g>
</svg>
