<svg xmlns="http://www.w3.org/2000/svg" viewBox="0 0 447 447" width="48" height="48">
	<style>
		<!-- tspan { white-space:pre }
		.shp0 { fill: #000000 }  -->
	</style>
	<g id="Layer">
		<path id="Layer" fill-rule="evenodd" class="shp0" d="M446.16 105.93L386.42 292.32C384.52 298.25 379 302.28 372.77 302.28L162.49 302.28C160.54 302.28 158.69 301.85 156.97 301.13L143.65 338.12L372.77 338.12C379.37 338.12 384.72 343.47 384.72 350.07C384.72 356.67 379.37 362.02 372.77 362.02L359.34 362.02C366.18 369.63 370.38 379.66 370.38 390.69C370.38 414.41 351.09 433.7 327.37 433.7C303.65 433.7 284.35 414.41 284.35 390.69C284.35 379.66 288.56 369.63 295.4 362.02L201.63 362.02C208.47 369.63 212.67 379.66 212.67 390.69C212.67 414.41 193.37 433.7 169.66 433.7C145.94 433.7 126.65 414.41 126.65 390.69C126.65 379.66 130.85 369.63 137.69 362.02L126.65 362.02C122.76 362.02 119.11 360.12 116.87 356.94C114.63 353.75 114.09 349.69 115.41 346.02L136.91 286.28C138.18 282.76 140.96 280.24 144.24 279.1L69.86 64.7L9.09 40.83C1.72 37.93 -1.9 29.6 0.99 22.23C3.89 14.87 12.21 11.25 19.59 14.13L86.49 40.42C90.39 41.95 93.42 45.11 94.79 49.06L108.07 87.33C108.67 87.25 109.3 87.21 109.92 87.21L432.51 87.21C437.08 87.21 441.39 89.4 444.09 93.1C446.79 96.8 447.56 101.57 446.16 105.93ZM188.77 390.69C188.77 380.15 180.2 371.57 169.66 371.57C159.12 371.57 150.54 380.15 150.54 390.69C150.54 401.23 159.12 409.81 169.66 409.81C180.2 409.81 188.77 401.23 188.77 390.69ZM346.48 390.69C346.48 380.15 337.91 371.57 327.37 371.57C316.82 371.57 308.25 380.15 308.25 390.69C308.25 401.23 316.82 409.81 327.37 409.81C337.91 409.81 346.48 401.23 346.48 390.69ZM412.86 115.89L329.36 115.89L329.36 148.15L402.52 148.15L412.86 115.89ZM393.33 176.82L329.36 176.82L329.36 213.86L381.45 213.86L393.33 176.82ZM300.68 213.86L300.68 176.82L234.57 176.82L234.57 213.86L300.68 213.86ZM300.68 242.54L234.57 242.54L234.57 273.6L300.68 273.6L300.68 242.54ZM151.97 213.86L205.9 213.86L205.9 176.82L139.12 176.82L151.97 213.86ZM300.68 148.15L300.68 115.89L234.57 115.89L234.57 148.15L300.68 148.15ZM117.97 115.89L129.16 148.15L205.9 148.15L205.9 115.89L117.97 115.89ZM172.69 273.6L205.9 273.6L205.9 242.54L161.92 242.54L172.69 273.6ZM362.31 273.6L372.27 242.54L329.36 242.54L329.36 273.6L362.31 273.6Z" />
	</g>
	<g id="Layer">
	</g>
	<g id="Layer">
	</g>
	<g id="Layer">
	</g>
	<g id="Layer">
	</g>
	<g id="Layer">
	</g>
	<g id="Layer">
	</g>
	<g id="Layer">
	</g>
	<g id="Layer">
	</g>
	<g id="Layer">
	</g>
	<g id="Layer">
	</g>
	<g id="Layer">
	</g>
	<g id="Layer">
	</g>
	<g id="Layer">
	</g>
	<g id="Layer">
	</g>
	<g id="Layer">
	</g>
</svg>
