<svg xmlns="http://www.w3.org/2000/svg" viewBox="0 0 472 472" width="48" height="48">
	<style>
		<!-- tspan { white-space:pre }
		.shp0 { fill: #ffffff }  -->
	</style>
	<g id="Layer">
		<g id="Layer">
			<path id="Layer" class="shp0" d="M457.7 230.15C450.2 230.15 444.2 236.15 444.2 243.65L444.2 366.45C444.2 399.85 417 426.95 383.7 426.95L87.5 426.95C54.1 426.95 27 399.75 27 366.45L27 241.65C27 234.15 21 228.15 13.5 228.15C6 228.15 0 234.15 0 241.65L0 366.45C0 414.75 39.3 453.95 87.5 453.95L383.7 453.95C432 453.95 471.2 414.65 471.2 366.45L471.2 243.65C471.2 236.25 465.2 230.15 457.7 230.15Z" />
			<path id="Layer" class="shp0" d="M226.1 346.75C228.7 349.35 232.2 350.75 235.6 350.75C239 350.75 242.5 349.45 245.1 346.75L330.9 260.95C336.2 255.65 336.2 247.15 330.9 241.85C325.6 236.55 317.1 236.55 311.8 241.85L249.1 304.65L249.1 30.75C249.1 23.25 243.1 17.25 235.6 17.25C228.1 17.25 222.1 23.25 222.1 30.75L222.1 304.65L159.3 241.85C154 236.55 145.5 236.55 140.2 241.85C134.9 247.15 134.9 255.65 140.2 260.95L226.1 346.75Z" />
		</g>
	</g>
	<g id="Layer">
	</g>
	<g id="Layer">
	</g>
	<g id="Layer">
	</g>
	<g id="Layer">
	</g>
	<g id="Layer">
	</g>
	<g id="Layer">
	</g>
	<g id="Layer">
	</g>
	<g id="Layer">
	</g>
	<g id="Layer">
	</g>
	<g id="Layer">
	</g>
	<g id="Layer">
	</g>
	<g id="Layer">
	</g>
	<g id="Layer">
	</g>
	<g id="Layer">
	</g>
	<g id="Layer">
	</g>
</svg>
