<svg xmlns="http://www.w3.org/2000/svg" viewBox="0 0 512 512" width="48" height="48">
	<style>
		<!-- tspan { white-space:pre }
		.shp0 { fill: #ffffff }  -->
	</style>
	<g id="Layer">
		<g id="Layer">
			<path id="Layer" class="shp0" d="M506.56 208.06L263.86 30.37C259.18 26.94 252.82 26.94 248.14 30.37L5.45 208.06C-0.48 212.41 -1.77 220.73 2.57 226.66C6.91 232.58 15.24 233.87 21.16 229.53L256 57.59L490.84 229.53C493.2 231.27 495.96 232.1 498.69 232.1C502.78 232.1 506.82 230.22 509.43 226.66C513.77 220.73 512.48 212.41 506.56 208.06Z" />
		</g>
	</g>
	<g id="Layer">
		<g id="Layer">
			<path id="Layer" class="shp0" d="M442.25 232.54C434.9 232.54 428.94 238.5 428.94 245.85L428.94 457.6L322.52 457.6L322.52 342.01C322.52 305.33 292.68 275.49 256 275.49C219.32 275.49 189.48 305.33 189.48 342.01L189.48 457.6L83.06 457.6L83.06 245.85C83.06 238.5 77.1 232.54 69.76 232.54C62.41 232.54 56.45 238.5 56.45 245.85L56.45 470.9C56.45 478.25 62.41 484.2 69.76 484.2L202.78 484.2C209.78 484.2 215.5 478.8 216.03 471.94C216.07 471.63 216.09 471.28 216.09 470.9L216.09 342.01C216.09 320 233.99 302.1 256 302.1C278.01 302.1 295.91 320 295.91 342.01L295.91 470.9C295.91 471.28 295.93 471.62 295.97 471.92C296.49 478.79 302.22 484.2 309.22 484.2L442.25 484.2C449.59 484.2 455.55 478.25 455.55 470.9L455.55 245.85C455.55 238.5 449.59 232.54 442.25 232.54Z" />
		</g>
	</g>
	<g id="Layer">
	</g>
	<g id="Layer">
	</g>
	<g id="Layer">
	</g>
	<g id="Layer">
	</g>
	<g id="Layer">
	</g>
	<g id="Layer">
	</g>
	<g id="Layer">
	</g>
	<g id="Layer">
	</g>
	<g id="Layer">
	</g>
	<g id="Layer">
	</g>
	<g id="Layer">
	</g>
	<g id="Layer">
	</g>
	<g id="Layer">
	</g>
	<g id="Layer">
	</g>
	<g id="Layer">
	</g>
</svg>
