<svg xmlns="http://www.w3.org/2000/svg" viewBox="0 0 479 479" width="48" height="48">
	<style>
		<!-- tspan { white-space:pre }
		.shp0 { fill: #000000 }  -->
	</style>
	<g id="Layer">
		<path id="Layer" fill-rule="evenodd" class="shp0" d="M461.68 345.2C462.38 359.2 458.88 379.1 438.98 397.1C440.28 406.3 440.28 420.8 432.18 435.4C421.57 454.5 400.68 467.5 370.07 474C357.07 476.8 341.47 478.2 323.57 478.2C313.18 478.2 301.97 477.7 290.07 476.8C224.37 478.1 160.37 470 156.77 469.5L133.27 466.7C126.47 471.5 118.17 474.3 109.27 474.3L48.27 474.3C25.37 474.3 6.67 455.7 6.67 432.7L6.67 270.2C6.67 247.3 25.27 228.6 48.27 228.6L109.27 228.6C116.47 228.6 123.17 230.4 129.07 233.6C133.27 224.4 139.47 213.9 148.67 204.2C149.17 203.7 149.67 203.2 150.27 202.8C181.57 178.7 218.57 91.9 231.77 56.5C230.37 45.5 229.07 21.7 240.17 8.8C245.07 3.1 251.97 0 259.47 0C267.27 0 293.77 1.8 310.37 24.7C326.17 46.5 326.97 79.1 312.97 121.7C301.17 157.5 300.07 173.4 300.47 179.8C305.87 178.6 311.17 177.5 316.17 176.6L316.27 176.6C317.17 176.4 339.17 171.5 365.47 170.3C402.88 168.5 429.88 175 445.77 189.5C467.47 209.3 464.97 234.8 458.47 251C464.07 258.3 470.87 270.2 471.47 285.4C472.07 299.2 467.38 312.6 457.57 325.1C459.48 330.2 461.27 337.1 461.68 345.2ZM48.28 447.3L48.28 447.2L109.28 447.2C117.28 447.2 123.88 440.7 123.88 432.6L123.88 270.1C123.88 262.1 117.38 255.5 109.28 255.5L48.27 255.5C40.27 255.5 33.67 262 33.67 270.1L33.67 432.7C33.67 440.7 40.18 447.3 48.28 447.3ZM444.48 286.4C443.98 273.1 433.48 263.2 433.38 263.1C428.38 258.6 427.28 251.3 430.98 245.7C432.28 243.6 443.78 224 427.58 209.2C408.48 191.8 353.48 195.9 322.78 202.6C322.38 202.7 321.88 202.8 321.48 202.9C315.98 203.8 310.18 205 304.08 206.4C297.68 208.7 288.88 208.4 282.28 202.5C268.98 190.7 270.38 163.9 287.18 113C298.18 79.6 298.58 54.4 288.38 40.3C279.78 28.4 265.48 26.9 260.18 26.8C257.78 30.9 257.18 44.6 258.88 55.8C259.28 58.1 259.08 60.4 258.28 62.5C256.38 67.7 212.48 187.8 167.58 223.4C155.78 236.1 150.78 251 148.98 257.7C150.18 261.6 150.88 265.8 150.88 270.1L150.88 432.7C150.88 435.7 150.58 438.7 149.98 441.5L160.08 442.7L160.18 442.7C160.88 442.8 225.88 451.2 290.18 449.8C290.68 449.8 291.18 449.8 291.58 449.8C321.78 452.2 346.38 451.5 364.48 447.6C387.07 442.8 401.98 434.2 408.68 422.2C415.68 409.7 411.38 396.5 411.38 396.4C409.38 390.8 411.28 384.6 415.98 381C429.18 371.1 435.48 359.5 434.78 346.4C434.28 336.8 430.18 329.8 430.18 329.7C426.98 324.5 427.78 317.8 431.98 313.4C440.68 304.4 444.88 295.3 444.48 286.4Z" />
	</g>
	<g id="Layer">
	</g>
	<g id="Layer">
	</g>
	<g id="Layer">
	</g>
	<g id="Layer">
	</g>
	<g id="Layer">
	</g>
	<g id="Layer">
	</g>
	<g id="Layer">
	</g>
	<g id="Layer">
	</g>
	<g id="Layer">
	</g>
	<g id="Layer">
	</g>
	<g id="Layer">
	</g>
	<g id="Layer">
	</g>
	<g id="Layer">
	</g>
	<g id="Layer">
	</g>
	<g id="Layer">
	</g>
</svg>
