<svg xmlns="http://www.w3.org/2000/svg" viewBox="0 0 129 129" width="48" height="48">
	<style>
		<!-- tspan { white-space:pre }
		.shp0 { fill: #000000 }  -->
	</style>
	<g id="Layer">
		<g id="Layer">
			<path id="Layer" fill-rule="evenodd" class="shp0" d="M121.7 45.1C122 45.7 122.2 46.3 122.3 47.1C122.6 48.4 122.8 49.7 122.8 50.9C122.8 57.8 118.7 63.8 112.8 66.7L112.8 118.6C112.8 120.9 111 122.7 108.7 122.7L22 122.7C19.7 122.7 17.9 120.9 17.9 118.6L17.9 67.4C11.1 65 6.3 58.5 6.3 50.9C6.3 49.5 6.5 48.2 6.9 46.7C6.9 46.3 7 46 7.1 45.7L7.5 44.5C7.6 44.3 7.6 44.1 7.7 43.9L20.2 9.1C20.8 7.5 22.4 6.4 24.1 6.4L104.9 6.4C106.7 6.4 108.2 7.5 108.8 9.1L121.4 44.1C121.4 44.2 121.5 44.4 121.5 44.4L121.7 45.1ZM104.5 114.5L104.5 68.5C104.3 68.5 104 68.4 103.8 68.4C103.5 68.4 103.1 68.3 102.8 68.3C102.6 68.3 102.3 68.2 102.1 68.2C101.6 68.1 101.2 68 100.8 67.9C100.7 67.9 100.6 67.8 100.5 67.8C96.9 66.9 93.8 64.9 91.5 62.1C88.3 65.9 83.4 68.4 78 68.4C72.6 68.4 67.7 66 64.5 62.1C61.3 65.9 56.4 68.4 51 68.4C45.6 68.4 40.7 66 37.5 62.1C34.8 65.3 31.1 67.5 26.8 68.2C26.6 68.2 26.3 68.3 26.1 68.3L26.1 114.5L104.5 114.5ZM114.5 50.9C114.5 50.1 114.4 49.3 114.1 48.3C114.1 48.2 114 48 114 47.9L113.8 47.3C113.8 47.2 113.7 47 113.7 47L102 14.5L27 14.5L15 47.8C15 47.9 14.9 48.1 14.9 48.2C14.6 49.2 14.5 50 14.5 50.8C14.5 55.5 17.9 59.3 22.3 60.1C22.4 60.1 22.5 60.1 22.6 60.1C22.8 60.2 22.9 60.2 23 60.2C23.3 60.2 23.7 60.3 24 60.3C24.6 60.3 25.2 60.2 25.8 60.1C26.3 60 26.7 59.9 27.2 59.7C27.3 59.6 27.3 59.6 27.4 59.6C30.6 58.3 33 55.3 33.3 51.6L33.3 51.5C33.4 51.3 33.4 51.1 33.4 50.9C33.4 48.6 35.2 46.8 37.5 46.8C39.8 46.8 41.6 48.6 41.6 50.9C41.6 51.1 41.6 51.2 41.6 51.4C41.6 51.4 41.6 51.5 41.6 51.6C41.9 55.2 44.3 58.3 47.5 59.6C47.6 59.7 47.6 59.7 47.7 59.7C48.2 59.8 48.7 60 49.2 60.1C49.8 60.2 50.4 60.3 51 60.3C51.6 60.3 52.2 60.2 52.8 60.1C53.3 60 53.8 59.9 54.3 59.7C54.4 59.6 54.4 59.6 54.5 59.6C57.7 58.3 60.1 55.3 60.4 51.6L60.4 51.5C60.5 51.3 60.5 51.1 60.5 50.9C60.5 48.6 62.3 46.8 64.6 46.8C66.9 46.8 68.7 48.6 68.7 50.9C68.7 51.1 68.8 51.2 68.8 51.4C68.8 51.5 68.8 51.5 68.8 51.6C69.1 55.2 71.5 58.3 74.7 59.6C74.8 59.7 74.8 59.7 74.9 59.7C75.3 59.8 75.8 60 76.3 60.1C76.9 60.2 77.5 60.3 78.1 60.3C78.7 60.3 79.3 60.2 79.9 60.1C80.4 60 80.9 59.9 81.4 59.7C81.5 59.6 81.5 59.6 81.6 59.6C84.8 58.3 87.2 55.3 87.5 51.6L87.5 51.5C87.6 51.3 87.6 51.1 87.6 50.9C87.6 48.6 89.4 46.8 91.7 46.8C94 46.8 95.8 48.6 95.8 50.9C95.8 51.1 95.8 51.2 95.8 51.4C95.8 51.4 95.8 51.5 95.8 51.6C96.1 55.2 98.5 58.3 101.7 59.6C101.8 59.7 101.8 59.7 101.9 59.7C102.3 59.8 102.8 60 103.3 60.1C103.9 60.2 104.5 60.3 105.1 60.3C105.5 60.3 106 60.3 106.4 60.2C106.8 60.1 107.2 60 107.7 59.9C107.6 59.9 107.6 59.9 107.7 59.9C111.6 58.7 114.5 55.1 114.5 50.9Z" />
		</g>
	</g>
</svg>
